<?xml version="1.0" encoding="utf-8"?>
<!-- Generator: Adobe Illustrator 24.3.0, SVG Export Plug-In . SVG Version: 6.00 Build 0)  -->
<svg version="1.1" id="fd01fc53-8d1b-486a-a481-e11f41af06c1"
	 xmlns="http://www.w3.org/2000/svg" xmlns:xlink="http://www.w3.org/1999/xlink" x="0px" y="0px" viewBox="0 0 1134.4 709.8"
	 style="enable-background:new 0 0 1134.4 709.8;" xml:space="preserve">
<style type="text/css">
	.st0{fill:#F2F2F2;}
	.st1{fill:#3F3D56;}
	.st2{fill:#296460;}
	.st3{fill:none;stroke:#535461;stroke-width:2;stroke-miterlimit:10;}
	.st4{fill:#DDE1EC;}
	.st5{opacity:0.3;fill:#535461;enable-background:new    ;}
	.st6{opacity:0.1;}
	.st7{fill:#535461;}
	.st8{fill:url(#SVGID_1_);}
	.st9{fill:#F8BDC5;}
	.st10{opacity:4.000000e-02;}
	.st11{fill:none;}
	.st12{fill:#5D3E53;}
	.st13{fill:#85555C;}
	.st14{opacity:5.000000e-02;enable-background:new    ;}
	.st15{opacity:0.2;enable-background:new    ;}
	.st16{fill:#E6E6E6;}
	.st17{fill:#FFFFFF;}
	.st18{fill:#CCCCCC;}
	.st19{fill:#242424;}
</style>
<path class="st0" d="M1102.8,286.6C1061.2,122.9,917.3,4.8,748.5,0c-89.3-2.5-183.2,27.1-251.6,130.7
	c-122.2,185.2,7.5,313.1,98,373.9c43.7,29.4,83.1,64.8,117,105.2c61.1,72.5,178.6,162.6,318.6,21.4
	C1132,528.9,1130.5,395.7,1102.8,286.6z"/>
<path class="st1" d="M156.2,410.8c-1.1-1.7-2.2-3.4-3.3-5.1l1.7-1.1c1,1.7,2.1,3.4,3.2,5L156.2,410.8z"/>
<path class="st1" d="M146.9,395c-1.9-3.6-3.6-7.4-5.1-11.2l1.9-0.8c1.5,3.7,3.2,7.4,5.1,11L146.9,395z M137.6,372.3
	c-1.2-3.9-2.3-7.9-3.2-11.9l2-0.4c0.9,3.9,2,7.9,3.2,11.7L137.6,372.3z M132.2,348.3c-0.6-4-1-8.2-1.2-12.2l2-0.1
	c0.2,4,0.6,8.1,1.2,12.1L132.2,348.3z M132.8,323.8l-2,0c0.1-4.1,0.4-8.2,0.8-12.3l2,0.2C133.2,315.7,132.9,319.8,132.8,323.8z
	 M135.3,299.7l-2-0.4c0.8-4,1.7-8,2.8-12l1.9,0.5C137,291.8,136.1,295.8,135.3,299.7L135.3,299.7z M141.8,276.4l-1.9-0.7
	c1.4-3.8,3-7.7,4.7-11.4l1.8,0.8C144.8,268.8,143.2,272.6,141.8,276.4L141.8,276.4z M415.7,270.2c-1.6-3.7-3.3-7.4-5.2-11l1.8-0.9
	c1.9,3.6,3.7,7.4,5.2,11.1L415.7,270.2z M152.1,254.4l-1.7-1c2-3.5,4.2-7,6.5-10.4l1.6,1.1C156.2,247.5,154.1,250.9,152.1,254.4z
	 M404.5,248.7c-2.2-3.4-4.5-6.8-6.9-10l1.6-1.2c2.5,3.3,4.8,6.7,7,10.1L404.5,248.7z M165.8,234.4l-1.6-1.3c2.6-3.2,5.3-6.3,8.2-9.2
	l1.4,1.4C171,228.3,168.3,231.3,165.8,234.4z M389.9,229.4c-2.7-3-5.5-5.9-8.4-8.7l1.4-1.4c3,2.8,5.8,5.8,8.6,8.8L389.9,229.4z
	 M182.6,217l-1.3-1.5c3.1-2.7,6.3-5.3,9.5-7.8l1.2,1.6C188.8,211.7,185.6,214.3,182.6,217z M372.3,212.7c-3.1-2.5-6.4-5-9.8-7.2
	l1.1-1.7c3.4,2.3,6.7,4.8,9.9,7.3L372.3,212.7z M202,202.5l-1.1-1.7c3.5-2.2,7.1-4.2,10.7-6.1l0.9,1.8
	C209,198.3,205.4,200.3,202,202.5z M352.3,199.1c-3.5-2-7.1-3.8-10.8-5.5l0.8-1.8c3.7,1.7,7.4,3.6,11,5.6L352.3,199.1z M223.5,191.3
	l-0.8-1.8c3.8-1.6,7.6-3,11.5-4.2l0.6,1.9C231.1,188.4,227.3,189.8,223.5,191.3z M330.2,188.9c-3.8-1.4-7.7-2.6-11.6-3.7l0.5-1.9
	c3.9,1.1,7.9,2.3,11.7,3.7L330.2,188.9z M246.6,183.9l-0.5-1.9c4-0.9,8-1.7,12.1-2.3l0.3,2C254.5,182.3,250.5,183,246.6,183.9
	L246.6,183.9z M306.8,182.6c-4-0.7-8-1.3-12-1.7l0.2-2c4.1,0.4,8.2,1,12.2,1.7L306.8,182.6z M270.6,180.4l-0.1-2
	c4.1-0.3,8.2-0.3,12.3-0.3l0,2C278.7,180.1,274.6,180.2,270.6,180.4z"/>
<path class="st1" d="M421.7,287.4c-0.5-1.9-1.1-3.8-1.7-5.7l1.9-0.6c0.6,1.9,1.2,3.9,1.8,5.8L421.7,287.4z"/>
<path class="st1" d="M409.6,175.4h-2c0-2,0-4,0.1-6l2,0.1C409.6,171.4,409.6,173.4,409.6,175.4z"/>
<path class="st1" d="M410.5,157.4l-2-0.2c0.4-4,1-8.1,1.7-12.1l2,0.4C411.5,149.4,410.9,153.5,410.5,157.4z M414.8,133.7l-1.9-0.5
	c1-3.9,2.2-7.9,3.4-11.7l1.9,0.6C416.9,126,415.7,129.9,414.8,133.7z M733.7,112.6c-1.5-3.7-3.1-7.4-4.9-11l1.8-0.9
	c1.8,3.6,3.4,7.4,5,11.1L733.7,112.6z M422.4,110.9l-1.8-0.8c1.6-3.7,3.3-7.5,5.1-11.1l1.8,0.9C425.6,103.5,423.9,107.2,422.4,110.9
	z M723.1,91c-2-3.5-4.2-6.9-6.4-10.2l1.7-1.1c2.3,3.3,4.5,6.8,6.5,10.3L723.1,91z M433.2,89.4l-1.7-1c2.1-3.5,4.3-6.9,6.6-10.2
	l1.6,1.1C437.5,82.5,435.3,85.9,433.2,89.4L433.2,89.4z M709.6,71.1c-2.5-3.1-5.1-6.2-7.8-9.2l1.5-1.4c2.7,3,5.4,6.1,7.9,9.3
	L709.6,71.1z M447,69.6l-1.6-1.3c2.6-3.1,5.2-6.2,8-9.2l1.5,1.4C452.2,63.4,449.5,66.5,447,69.6z M693.3,53.3c-2.9-2.8-5.9-5.4-9-8
	l1.3-1.5c3.1,2.6,6.2,5.3,9.1,8.1L693.3,53.3z M463.5,52l-1.4-1.5c3-2.7,6.1-5.4,9.2-8l1.3,1.6C469.5,46.7,466.4,49.3,463.5,52
	L463.5,52z M674.7,38.1c-3.3-2.3-6.7-4.5-10.1-6.6l1-1.7c3.5,2.1,6.9,4.3,10.2,6.7L674.7,38.1z M482.3,37l-1.1-1.6
	c3.3-2.3,6.8-4.5,10.3-6.6l1,1.7C489,32.5,485.6,34.7,482.3,37L482.3,37z M654.1,25.6c-3.6-1.8-7.2-3.5-10.9-5.1l0.8-1.8
	c3.7,1.6,7.4,3.3,11.1,5.2L654.1,25.6z M503,24.7l-0.9-1.8c3.6-1.8,7.4-3.5,11.1-5l0.8,1.9C510.3,21.3,506.6,23,503,24.7L503,24.7z
	 M631.9,16.2c-3.8-1.3-7.7-2.5-11.5-3.5l0.5-1.9c3.9,1,7.9,2.2,11.7,3.5L631.9,16.2z M525.3,15.6l-0.6-1.9c3.8-1.3,7.8-2.4,11.7-3.4
	l0.5,1.9C533,13.2,529.1,14.4,525.3,15.6L525.3,15.6z M608.6,10.1c-3.9-0.7-7.9-1.3-11.9-1.8l0.2-2c4,0.5,8.1,1.1,12.1,1.8
	L608.6,10.1z M548.6,9.8l-0.3-2c4-0.7,8-1.3,12.1-1.7l0.2,2C556.6,8.5,552.6,9.1,548.6,9.8L548.6,9.8z M584.6,7.4
	c-4-0.2-8.1-0.2-12.1-0.1l-0.1-2c4-0.1,8.1-0.1,12.2,0.1L584.6,7.4z"/>
<path class="st1" d="M739.6,129.8c-0.5-1.9-1.1-3.8-1.7-5.7l1.9-0.6c0.6,1.9,1.2,3.9,1.7,5.8L739.6,129.8z"/>
<ellipse class="st2" cx="420.7" cy="312.4" rx="33.3" ry="2.5"/>
<ellipse class="st2" cx="748.9" cy="186.6" rx="33.3" ry="2.5"/>
<rect x="615.5" y="228.2" transform="matrix(0.7071 -0.7071 0.7071 0.7071 38.9201 552.4176)" class="st1" width="141.7" height="2"/>
<rect x="438.2" y="291.4" class="st1" width="168.2" height="2"/>
<rect x="294.7" y="351.8" transform="matrix(0.7071 -0.7071 0.7071 0.7071 -143.6738 358.7253)" class="st1" width="133.1" height="2"/>
<rect x="172.6" y="412.2" class="st1" width="112.4" height="2"/>
<path class="st1" d="M302.5,431.7c-10.2,0-18.5-8.3-18.5-18.5c0-10.2,8.3-18.5,18.5-18.5S321,403,321,413.2l0,0
	C321,423.4,312.7,431.6,302.5,431.7z M302.5,396.7c-9.1,0-16.5,7.4-16.5,16.5s7.4,16.5,16.5,16.5c9.1,0,16.5-7.4,16.5-16.5l0,0
	C319,404.1,311.6,396.7,302.5,396.7z"/>
<path class="st1" d="M420.7,310.9c-10.2,0-18.5-8.3-18.5-18.5s8.3-18.5,18.5-18.5c10.2,0,18.5,8.3,18.5,18.5
	C439.2,302.6,430.9,310.9,420.7,310.9z M420.7,275.9c-9.1,0-16.5,7.4-16.5,16.5s7.4,16.5,16.5,16.5c9.1,0,16.5-7.4,16.5-16.5
	C437.2,283.3,429.8,275.9,420.7,275.9L420.7,275.9z"/>
<path class="st1" d="M623.9,310.9c-10.2,0-18.5-8.3-18.5-18.5c0-10.2,8.3-18.5,18.5-18.5c10.2,0,18.5,8.3,18.5,18.5
	C642.4,302.6,634.1,310.9,623.9,310.9z M623.9,275.9c-9.1,0-16.5,7.4-16.5,16.5c0,9.1,7.4,16.5,16.5,16.5c9.1,0,16.5-7.4,16.5-16.5
	C640.4,283.3,633,275.9,623.9,275.9L623.9,275.9z"/>
<path class="st1" d="M748.9,185.1c-10.2,0-18.5-8.3-18.5-18.5c0-10.2,8.3-18.5,18.5-18.5c10.2,0,18.5,8.3,18.5,18.5
	C767.3,176.9,759.1,185.1,748.9,185.1z M748.9,150.2c-9.1,0-16.5,7.4-16.5,16.5c0,9.1,7.4,16.5,16.5,16.5c9.1,0,16.5-7.4,16.5-16.5
	C765.3,157.5,758,150.2,748.9,150.2L748.9,150.2z"/>
<path class="st2" d="M155.1,304.1c-18.4,0-33.3,14.9-33.3,33.3c0,0,0,0,0,0c0,18.4,33.3,79.1,33.3,79.1s33.3-60.7,33.3-79.1
	C188.4,319,173.5,304.1,155.1,304.1C155.1,304.1,155.1,304.1,155.1,304.1z M155.1,354.9c-9.7,0-17.5-7.8-17.5-17.5
	c0-9.7,7.8-17.5,17.5-17.5s17.5,7.8,17.5,17.5S164.7,354.9,155.1,354.9C155.1,354.9,155.1,354.9,155.1,354.9z"/>
<path class="st2" d="M420.7,179.1c-18.4,0-33.3,14.9-33.3,33.3c0,18.4,33.3,79.1,33.3,79.1s33.3-60.7,33.3-79.1
	C454,194.1,439.1,179.1,420.7,179.1C420.7,179.1,420.7,179.1,420.7,179.1z M420.7,229.9c-9.7,0-17.5-7.8-17.5-17.5
	s7.8-17.5,17.5-17.5s17.5,7.8,17.5,17.5S430.4,229.9,420.7,229.9L420.7,229.9z"/>
<path class="st2" d="M748.9,59.2c-18.4,0-33.3,14.9-33.3,33.3l0,0c0,18.4,33.3,79.1,33.3,79.1s33.3-60.7,33.3-79.1
	C782.2,74.1,767.3,59.2,748.9,59.2C748.9,59.2,748.9,59.2,748.9,59.2z M748.9,110c-9.7,0-17.5-7.8-17.5-17.5
	c0-9.7,7.8-17.5,17.5-17.5c9.7,0,17.5,7.8,17.5,17.5S758.5,110,748.9,110L748.9,110L748.9,110z"/>
<path class="st3" d="M313.3,499.7"/>
<circle class="st4" cx="894.1" cy="432" r="145.1"/>
<rect x="890" y="312.5" class="st5" width="8.2" height="128.2"/>
<g class="st6">
	<rect x="902.8" y="428.9" width="115.9" height="10.3"/>
	<rect x="849.9" y="373" transform="matrix(0.4639 -0.8859 0.8859 0.4639 91.4772 979.5294)" width="10.3" height="82.3"/>
	<circle cx="894.1" cy="434" r="15.4"/>
</g>
<rect x="902.8" y="426.9" class="st7" width="115.9" height="10.3"/>
<rect x="850" y="371" transform="matrix(0.4639 -0.8859 0.8859 0.4639 93.3024 978.4657)" class="st7" width="10.3" height="82.3"/>
<circle class="st7" cx="894.1" cy="432" r="15.4"/>
<g class="st6">
	<path d="M760.2,449.4c0-80.2,65-145.1,145.1-145.1c45.6,0,88.6,21.4,116,57.9c-24.7-44.9-72.4-75.3-127.3-75.3
		c-80.2,0-145.1,65-145.1,145.1c0,31.5,10.2,62.1,29.2,87.3C766.3,497.9,760.2,473.9,760.2,449.4z"/>
</g>
<linearGradient id="SVGID_1_" gradientUnits="userSpaceOnUse" x1="1049.7866" y1="140.2438" x2="1049.7866" y2="354.1169" gradientTransform="matrix(1 0 0 -1 -81.08 648.14)">
	<stop  offset="0" style="stop-color:#808080;stop-opacity:0.25"/>
	<stop  offset="0.54" style="stop-color:#808080;stop-opacity:0.12"/>
	<stop  offset="1" style="stop-color:#808080;stop-opacity:0.1"/>
</linearGradient>
<path class="st8" d="M1028.2,325.2c-1.7-1.7-16.2,9.2-16.2,9.2s-5.2,0.9-3.9,4.5c1.2,3.5-5.4,23.4-5.4,23.4l-2.7-3.8
	c0.3-4.4-1-7.6-2.1-9.5c-0.1-0.2-0.2-0.3-0.3-0.5l0.5-0.2c-0.2-2.4-4.1-6.1-6.1-7.9c0-0.3,0-0.5,0-0.8c0.1-2.9,1.3-5.9,0-8.6
	c-1.5-3-5.7-4.5-6.1-7.8c-0.2-2,1.1-3.7,1.7-5.6c1.4-4.5-1.5-9.1-4.3-13c-0.9-1.5-2.1-2.8-3.4-3.9c-1.2-0.9-2.6-1.6-4.1-2.2
	c-4.1-1.6-8.2-2.5-12.4-3.6c-4-1.1-7.7-1.6-11.8-0.2c-1,0.3-1.9,0.8-2.6,1.5c-1,1.1-1.1,2.6-1.7,3.9c-1,2.1-3.2,3.3-5.2,4.7
	s-3.9,3.2-3.9,5.5c0,3.3,3.7,5.3,5,8.4c1.2,2.8,0,6-0.7,9c-0.3,1-0.3,2-0.1,3c0.3,0.7,0.6,1.4,1.1,2c0.8,1,1.6,2,2.4,3l-0.4,0.1
	c-6.9-0.7-11.3,8-11.3,8c0.3,0.1,0.6,0.1,0.9,0.2l-0.3,0.4c-2.1,2.7-3.8,5.7-5.1,8.8l-5.6,7.6c0,0-1.2-18.9,1.7-23.2
	c3-4.3-2.7-6.9-2.7-6.9s-12.3-13.7-14-12.5s4.2,16.1,9.3,18.4c0,0,0.5,4.7-0.5,7.8c-0.6,1.9-3.9,22.4-3.9,22.4s-2.9,17.2,10.6,8.7
	c8.8-5.5,14.5-15,17.4-21c0.2-0.4,0.4-0.8,0.6-1.2c0.1,0.6,0.2,1.3,0.3,1.9l0.5,19.8c0.1,4.9-0.9,9.7-3.1,14.1l-6,12.2l0.7,0.2
	l-0.4,0.6c-4,5.8-10.7,19,3.2,25.7l18.5,2.4l-1,4.7c0,0-7.6,14.4-9.8,24.3c-1.4,6.1-3.5,12-6.4,17.5l0.6,0.3
	c-0.1,0.1-0.2,0.3-0.4,0.4c-1.1,1.3-1.9,2.8-2.1,4.5l-2.5,3.5c0,0-1,14.6,1,18.2c1.1,1.9,4.7,3.2,7.7,3.9c4.5,1.1,8.2-3.6,5.8-7.4
	l0-0.1h0c-0.5-2.4-2.1-9.8-1.6-12.6c0.1-0.8,0.3-1.6,0.3-2.4c0.1-1.1,0.4-2.1,1-3c0.1-0.2,0.2-0.3,0.3-0.5l0.3,0.1
	c0.8,0.4,1.6,0.7,2.4,1c-1.2,1.1-2.1,3.4-1,8c0,0,0.1,11.6,1,13.5c0.9,1.8,10.8,4.3,12.5,2.4c1.7-1.9-1.1-8.4-1.1-8.4l-0.1,0.1
	c-0.6-3.8-1.3-10.5,0.5-13.2c0.7-1.1,1.4-2.2,2-3.2l0.4-0.6l0,0c3.2,1.6,6.6,2.8,8.5,2c0,0,8.1-18.9,7.6-21.3s12.5-29.1,12.5-29.1
	s11.1-12.3-2.5-20.8c-4.3-2.7-7.4-4.5-9.7-5.7l-1.9-10c-1-5.2-0.8-10.6,0.5-15.7l2.1-7.8l0,0l0.2-0.7c0,0,5.2-10.6,4.9-15.6
	c0-0.4,0-0.8,0.1-1.1c0.1,0.2,0.1,0.5,0.2,0.7c1.4,5.2,3.1,10.2,5.3,15.1c3.9,8.9,9.7,8.1,12.9,6.9c1.4-0.5,2.4-1.7,2.7-3.2
	c1.1-5.5,4.3-20.9,4.5-25.2c0.2-3.3,0.6-6.6,1.2-9.9C1023.1,335.1,1029.9,326.9,1028.2,325.2z"/>
<path class="st9" d="M968,476.6c0,0-1.1,2.2-2.6,4.8c-0.6,1-1.2,2.1-1.9,3.2c-2.3,3.7,0,15.7,0,15.7l-5.1,0.7l-5.1-2.6l-0.9-8.7
	v-6.3l5.8-6.5l2.6-2.8L968,476.6z"/>
<g class="st6">
	<path d="M968,476.6c0,0-1.1,2.2-2.6,4.8c-2.3-1.2-4.5-2.6-6.6-4l-0.5-0.3l-0.2-0.2l2.6-2.8L968,476.6z"/>
</g>
<path class="st2" d="M993.1,432.8c0,0-12.4,26.5-11.9,28.8c0.5,2.3-7.3,21.1-7.3,21.1c-1.8,0.8-5-0.4-8.1-1.9
	c-2.3-1.2-4.5-2.6-6.7-4.1l-0.5-0.3l-0.3-0.2l20.4-56.5l-18-13.2l-1.3-1l-8.1-5.9L976,404c0,0,0.9-0.1,5.4,2.4
	c2.2,1.2,5.2,3,9.4,5.8C1003.6,420.6,993.1,432.8,993.1,432.8z"/>
<g class="st10">
	<path class="st11" d="M993.1,432.8c0,0-12.4,26.5-11.9,28.8c0.5,2.3-7.3,21.1-7.3,21.1c-1.8,0.8-5-0.4-8.1-1.9
		c-2.3-1.2-4.5-2.6-6.7-4.1l-0.5-0.3l-0.3-0.2l20.4-56.5l-18-13.2l-1.3-1l-8.1-5.9L976,404c0,0,0.9-0.1,5.4,2.4
		c2.2,1.2,5.2,3,9.4,5.8C1003.6,420.6,993.1,432.8,993.1,432.8z"/>
</g>
<path class="st12" d="M955.4,481.3c0,0-6.1-0.9-4,8.9c0,0,0.1,11.5,0.9,13.3c0.8,1.8,10.3,4.2,11.9,2.3c1.6-1.9-1.1-8.3-1.1-8.3
	s-6.9,5-8.8-0.4C952.5,491.8,955.4,481.3,955.4,481.3z"/>
<path class="st9" d="M951.1,479.4c-0.7,0.6-1.2,1.4-1.6,2.2c-0.5,0.9-0.8,2-0.9,3c-0.1,0.8-0.2,1.6-0.3,2.4
	c-0.6,3.3,1.7,13.2,1.7,13.2l-8.9,1.4l-3.3-3.5l-0.7-7.7c0.9-2.7,1.3-5.4,1.4-8.2c0-2,1-3.8,2.1-5.1c0.7-0.9,1.5-1.7,2.4-2.4
	C942.9,474.8,953,477.8,951.1,479.4z"/>
<g class="st6">
	<path d="M951.1,479.4c-0.7,0.6-1.2,1.4-1.6,2.2c-3.6-1.6-7.5-3.7-8.9-4.5l-0.1-0.1c0.7-0.9,1.5-1.7,2.4-2.4
		C942.9,474.8,953,477.8,951.1,479.4z"/>
</g>
<path class="st2" d="M980,425.8c0,0-5.9,11-9.6,20.1c-2.5,6-7.5,20.3-10.8,29.4l-0.5,1.3c-1.4,4-2.4,6.7-2.4,6.7
	c-0.6,0-1.2-0.1-1.8-0.3c-0.6-0.1-1.2-0.3-1.8-0.6l-0.7-0.3c-0.7-0.3-1.5-0.6-2.3-1c-3.7-1.7-7.7-3.8-9.1-4.6l-0.5-0.3
	c2.7-5.5,4.8-11.3,6.1-17.4c2.1-9.8,9.4-24.1,9.4-24.1l0.9-4.7l-17.6-2.3c-13.2-6.6-6.8-19.7-3-25.4c0.6-1,1.3-2,2.1-2.9l14.1,3.1
	c0,0,2.2,0.7,7.1,2.9l2.3,1c2.8,1.3,6.2,2.9,10.3,5C985.8,418.5,980,425.8,980,425.8z"/>
<path class="st12" d="M949.9,499.6c1.4,2.4,0.6,5.4-1.7,6.8c-1.1,0.7-2.5,0.9-3.7,0.5c-2.9-0.7-6.3-1.9-7.3-3.9
	c-1.9-3.5-0.9-18-0.9-18l2.5-3.6c0,0-1.3,16,1.8,17.4S949.8,499.5,949.9,499.6L949.9,499.6z"/>
<path class="st13" d="M952.4,295.9c-0.9,0.3-1.8,0.8-2.5,1.5c-0.9,1.1-1,2.6-1.7,3.9c-1,2.1-3.1,3.3-4.9,4.6
	c-1.9,1.3-3.7,3.1-3.7,5.4c0,3.3,3.6,5.3,4.8,8.3c1.1,2.8,0,6-0.6,8.9c-0.3,1-0.3,2-0.1,2.9c0.2,0.7,0.6,1.4,1.1,2
	c2.3,3.1,5.1,5.8,6.6,9.3c1.1,2.7,1.5,5.6,1.8,8.5c0.4,4.2,0.9,8.4,0.1,12.5c-0.1,0.2-0.1,0.5,0,0.8c0.1,0.2,0.3,0.4,0.6,0.5
	c6.1,3,13.5,0.4,16.5-5.7c0.1-0.2,0.1-0.3,0.2-0.5c1-2.3,1.4-5.1,3.5-6.6c0.2-0.2,0.5-0.3,0.8-0.4c0.5,0,0.9,0.2,1.3,0.4
	c2.6,1.4,5.8,1.5,8.8,0.9c1.8-0.4,3.6-1,4.8-2.4c2.3-2.7,1-6.9,1.2-10.4c0.1-2.9,1.2-5.9,0-8.5c-1.4-3-5.5-4.5-5.8-7.7
	c-0.2-1.9,1.1-3.7,1.6-5.6c1.3-4.5-1.4-9-4.1-12.9c-0.9-1.4-2-2.7-3.2-3.9c-1.2-0.9-2.5-1.6-3.9-2.2c-3.9-1.6-7.8-2.4-11.8-3.6
	C959.8,295,956.3,294.5,952.4,295.9z"/>
<path class="st9" d="M972,362.8h-13.6v-22c0.4-2.1,0.6-4.3,0.7-6.4c0-0.7,0-1.5,0-2.2c-0.1-2.6-0.7-5.2-2.1-6.8
	c-3.7-4.2,12.2-3.5,12.2-3.5c0.5,1.9,1.1,3.8,1.9,5.7c1.2,2.9,2.7,5.6,4.6,8c1.6,2.2,3.8,4,6.2,5.3C991.2,345.4,972,362.8,972,362.8
	z"/>
<g class="st6">
	<path d="M971.1,327.5c-2.8,3.7-7.4,5.5-12,4.7c-0.1-2.6-0.7-5.2-2.1-6.8c-3.7-4.2,12.2-3.5,12.2-3.5
		C969.7,323.7,970.3,325.6,971.1,327.5z"/>
</g>
<circle class="st9" cx="961.2" cy="319.2" r="12.4"/>
<path class="st9" d="M1012.8,340.5c-0.6,3.2-1,6.5-1.2,9.8c-0.2,4.2-3.2,19.5-4.3,25c-0.3,1.4-1.3,2.6-2.6,3.2
	c-3,1.2-8.6,1.9-12.3-6.8c-2.1-4.8-3.8-9.8-5.1-14.9c-0.5-1.7-0.8-3.5-1-5.2l8.2-4.5c0.8,0.7,1.4,1.6,1.9,2.5
	c1.1,1.9,2.3,5.1,2.1,9.5l2.6,3.7c0,0,6.3-19.7,5.1-23.2c-1.2-3.5,3.7-4.5,3.7-4.5s13.8-10.8,15.5-9.1
	C1027,327.6,1020.5,335.8,1012.8,340.5z"/>
<path class="st9" d="M945.5,349.9c-0.6,1.8-1.4,3.6-2.2,5.4c-2.8,5.9-8.2,15.4-16.5,20.9c-12.9,8.4-10.1-8.7-10.1-8.7
	s3.2-20.3,3.7-22.3c0.9-3,0.5-7.7,0.5-7.7c-4.9-2.3-10.5-17.1-8.9-18.3c1.6-1.2,13.3,12.4,13.3,12.4s5.4,2.6,2.6,6.8
	c-2.8,4.2-1.6,23-1.6,23l5.4-7.5c1.2-3.1,2.8-6.1,4.8-8.8c1-1.4,1.7-2.2,1.7-2.2L945.5,349.9z"/>
<g class="st6">
	<path d="M996.4,349.6c-1.7,0.6-8.4,3.3-9.1,7.2c-0.5-1.7-0.8-3.5-1-5.2l8.2-4.5C995.2,347.8,995.9,348.6,996.4,349.6z"/>
</g>
<g class="st6">
	<path d="M945.5,349.9c-0.6,1.8-1.4,3.6-2.2,5.4c-0.3-2.3-1.6-8.2-6.8-10.2c1-1.4,1.7-2.2,1.7-2.2L945.5,349.9z"/>
</g>
<g class="st6">
	<path d="M972,362.8h-13.6v-22c0.4-2.1,0.6-4.3,0.7-6.4c2.8,2.7,2.1,6.9,2.1,6.9l7.3,16.4l3.5-14.5l-1.2-1.9l4.8-5.7
		c1.6,2.2,3.8,4,6.2,5.3C991.2,345.4,972,362.8,972,362.8z"/>
</g>
<g class="st6">
	<path d="M981.6,407.8c0,0-10.6-0.8-19.9-1.2l-0.9,0c-1.3-0.1-2.6-0.1-3.8-0.1c-9-0.2-19.1-3.3-20.8-3.9c0.6-1,1.3-2,2.1-2.9
		l14.1,3.1c0,0,2.2,0.7,7.1,2.9l-8.1-6L976,404c0,0,0.9-0.1,5.4,2.4L981.6,407.8z"/>
</g>
<path class="st2" d="M972,344l-1.2-1.9l5.2-6.2c0,0,10.7,5.3,13.5,4.1c0,0,6.8,5.6,7,8.9c0,0-9.8,3.3-9.6,8.2
	c0.2,4.9-4.7,15.5-4.7,15.5l-2.1,8.4c-1.3,5.1-1.4,10.4-0.5,15.6l1.9,10.4c0,0-14.8-1.2-24.6-1.4c-9.9-0.2-21.1-4-21.1-4l5.7-12.1
	c2.1-4.4,3.1-9.2,3-14l-0.5-19.6c0,0-0.5-9.8-8.2-11.5c0,0,4.2-8.7,10.8-8c0,0,9.6-4,12.4-1.3c2.8,2.7,2.1,6.9,2.1,6.9l7.3,16.4
	L972,344z"/>
<g class="st6">
	<path d="M952.2,316.7c1.9,0,3.4-2,5.2-1.9c1,0.1,1.8,0.7,2.6,1.2c3,2.1,6.4,3.7,10,4.6c1.4,0.4,2.9,0.6,4.3,0.3
		c1.4-0.3,2.7-1.4,2.9-2.9c0-0.6,0-1.3-0.2-1.9c-1.6-5.5-5.2-10.2-10-13.2c-1.9-1.2-4.3-2.1-6.5-1.4c-1.9,0.7-3.2,2.5-4.6,4
		c-1.1,1.1-2.3,2.1-3.6,2.9c-1,0.6-2.6,1-3.2,2.2C948,312.8,949.8,316.6,952.2,316.7z"/>
</g>
<path class="st13" d="M952.2,316.2c1.9,0,3.4-2,5.2-1.9c1,0.1,1.8,0.7,2.6,1.2c3,2.1,6.4,3.7,10,4.6c1.4,0.4,2.9,0.6,4.3,0.3
	c1.4-0.3,2.7-1.4,2.9-2.9c0-0.6,0-1.3-0.2-1.9c-1.6-5.5-5.2-10.2-10-13.2c-1.9-1.2-4.3-2.1-6.5-1.4c-1.9,0.7-3.2,2.5-4.6,4
	c-1.1,1.1-2.3,2.1-3.6,2.9c-1,0.6-2.6,1-3.2,2.2C948,312.4,949.8,316.2,952.2,316.2z"/>
<path class="st14" d="M946.6,369.7c0,0,11.5,4.2,19,0.9l3.7,0.2c0,0,6.2,4.4,12.8,2.4"/>
<path class="st14" d="M1000.9,362.7c0,0-1.9,4.5-0.9,5.9"/>
<path class="st14" d="M926.2,361.3c0,0,0.9,4.5,0,5.9"/>
<path class="st2" d="M248.1,558.2H110.3c-0.2,0-0.3,0-0.5,0L175,445.3c1.2-2.2,4-3,6.2-1.7c0.7,0.4,1.3,1,1.7,1.7l43.7,75.7l2.1,3.6
	L248.1,558.2z"/>
<polygon class="st15" points="248.1,558.2 201,558.2 224.1,524.6 225.8,522.2 226.6,521 228.7,524.6 "/>
<path class="st2" d="M324.8,558.2H205.6l23.1-33.5l1.7-2.4l30.1-43.7c2-2.9,6.7-3,9-0.5c0.2,0.2,0.3,0.4,0.4,0.5L324.8,558.2z"/>
<circle class="st2" cx="359.7" cy="531.1" r="8.5"/>
<polygon class="st1" points="360.5,556.6 358.8,556.6 359.6,529.9 "/>
<polygon class="st1" points="359.8,534.9 361.6,532.3 359.7,535.6 359.5,535.2 "/>
<polygon class="st1" points="359.6,537.5 357.7,534.9 359.6,538.2 359.8,537.8 "/>
<circle class="st2" cx="437.3" cy="531.1" r="8.5"/>
<polygon class="st1" points="438.2,556.6 436.4,556.6 437.2,529.9 "/>
<polygon class="st1" points="437.4,534.9 439.2,532.3 437.3,535.6 437.1,535.2 "/>
<polygon class="st1" points="437.2,537.5 435.3,534.9 437.2,538.2 437.4,537.8 "/>
<circle class="st2" cx="384.2" cy="519" r="12.5"/>
<polygon class="st1" points="385.4,556.6 382.9,556.6 384,517.1 "/>
<polygon class="st1" points="384.3,524.6 387,520.8 384.2,525.5 383.9,525 "/>
<polygon class="st1" points="384,528.4 381.2,524.6 384,529.4 384.3,528.8 "/>
<circle class="st2" cx="414.7" cy="519" r="12.5"/>
<polygon class="st1" points="415.9,556.6 413.4,556.6 414.5,517.1 "/>
<polygon class="st1" points="414.7,524.6 417.5,520.8 414.7,525.5 414.4,525 "/>
<polygon class="st1" points="414.4,528.4 411.7,524.6 414.5,529.4 414.8,528.8 "/>
<circle class="st2" cx="335.7" cy="519" r="12.5"/>
<polygon class="st1" points="336.9,556.6 334.3,556.6 335.5,517.1 "/>
<polygon class="st1" points="335.7,524.6 338.5,520.8 335.7,525.5 335.4,525 "/>
<polygon class="st1" points="335.4,528.4 332.7,524.6 335.4,529.4 335.7,528.8 "/>
<path class="st16" d="M483.5,686.4H75.7c-21.6,0-39.1-17.5-39.1-39.1c0-21.6,17.5-39.1,39.1-39.1h406.9c8.3,0,15-6.7,15-15
	c0-8.3-6.7-15-15-15H62.2V554h420.4c21.6,0,39.1,17.5,39.1,39.1c0,21.6-17.5,39.1-39.1,39.1c0,0,0,0,0,0H75.7c-8.3,0-15,6.7-15,15
	c0,8.3,6.7,15,15,15h407.8V686.4z"/>
<rect x="77.2" y="565.5" class="st17" width="18.7" height="1.2"/>
<rect x="130.2" y="565.5" class="st17" width="18.7" height="1.2"/>
<rect x="183.2" y="565.5" class="st17" width="18.7" height="1.2"/>
<rect x="236.1" y="565.5" class="st17" width="18.7" height="1.2"/>
<rect x="289.1" y="565.5" class="st17" width="18.7" height="1.2"/>
<rect x="342.1" y="565.5" class="st17" width="18.7" height="1.2"/>
<rect x="395" y="565.5" class="st17" width="18.7" height="1.2"/>
<rect x="448" y="565.5" class="st17" width="18.7" height="1.2"/>
<rect x="77.2" y="619.6" class="st17" width="18.7" height="1.2"/>
<rect x="130.2" y="619.6" class="st17" width="18.7" height="1.2"/>
<rect x="183.2" y="619.6" class="st17" width="18.7" height="1.2"/>
<rect x="236.1" y="619.6" class="st17" width="18.7" height="1.2"/>
<rect x="289.1" y="619.6" class="st17" width="18.7" height="1.2"/>
<rect x="342.1" y="619.6" class="st17" width="18.7" height="1.2"/>
<rect x="395" y="619.6" class="st17" width="18.7" height="1.2"/>
<rect x="448" y="619.6" class="st17" width="18.7" height="1.2"/>
<rect x="77.2" y="673.8" class="st17" width="18.7" height="1.2"/>
<rect x="130.2" y="673.8" class="st17" width="18.7" height="1.2"/>
<rect x="183.2" y="673.8" class="st17" width="18.7" height="1.2"/>
<rect x="236.1" y="673.8" class="st17" width="18.7" height="1.2"/>
<rect x="289.1" y="673.8" class="st17" width="18.7" height="1.2"/>
<rect x="342.1" y="673.8" class="st17" width="18.7" height="1.2"/>
<rect x="395" y="673.8" class="st17" width="18.7" height="1.2"/>
<rect x="448" y="673.8" class="st17" width="18.7" height="1.2"/>
<path class="st11" d="M349.6,466.9c-1-1.2-2.1-2.3-3.3-3.2h7C351.8,464.5,350.6,465.6,349.6,466.9z"/>
<path class="st11" d="M326.8,463.7h1.2c-0.3,0.2-0.5,0.4-0.8,0.6C327.1,464.1,326.9,463.9,326.8,463.7z"/>
<path class="st16" d="M358.8,462.3c2,0,3.9,0.5,5.6,1.4h-11.2C355,462.8,356.9,462.3,358.8,462.3z"/>
<path class="st16" d="M337.1,460.8c3.3,0,6.5,1,9.1,2.9H328C330.7,461.9,333.9,460.8,337.1,460.8z"/>
<path class="st16" d="M214.1,448.6c0.9-16.4,14.9-28.9,31.3-28c12.7,0.7,23.5,9.4,26.9,21.7c0.4,0,0.7,0,1.1,0
	c13.2,0,24.8,8.7,28.5,21.3c8.7-3.8,19-1.3,24.9,6.2h-92.6c-11.1,0-20.1-8.9-20.1-20c0-0.3,0-0.5,0-0.8
	C214.1,448.9,214.1,448.7,214.1,448.6z"/>
<path class="st11" d="M374.8,488.6c1-1.2,2.1-2.3,3.3-3.2h-7C372.6,486.2,373.8,487.3,374.8,488.6z"/>
<path class="st11" d="M397.7,485.4h-1.2c0.3,0.2,0.5,0.4,0.8,0.6C397.4,485.8,397.5,485.6,397.7,485.4z"/>
<path class="st16" d="M365.6,484c-2,0-3.9,0.5-5.6,1.4h11.2C369.5,484.5,367.6,484,365.6,484z"/>
<path class="st16" d="M387.3,482.5c-3.3,0-6.5,1-9.1,2.9h18.3C393.8,483.5,390.6,482.5,387.3,482.5z"/>
<path class="st16" d="M510.3,464.2c-0.9-16.4-14.9-28.9-31.3-28c-12.7,0.7-23.5,9.4-26.9,21.7c-0.4,0-0.7,0-1.1,0
	c-13.2,0-24.8,8.7-28.5,21.3c-8.7-3.8-19-1.3-24.9,6.2h92.6c11.1,0,20.1-8.9,20.1-20c0-0.3,0-0.5,0-0.8
	C510.3,464.5,510.3,464.3,510.3,464.2z"/>
<rect x="448.6" y="667.9" class="st1" width="10.8" height="1.7"/>
<path class="st2" d="M370.8,668.3l2.2,0.5l84.4,0l0.8-1.8c1.3-3,1.8-6.4,1.3-9.6c-0.4-2.4-1.3-4.9-3.3-5.9l-3.7-24.9l-46.7-0.1
	l-18.1,14.6c0,0-8.5-0.2-13.1,5.6c-1.7,2.1-2.7,4.7-2.8,7.4l-0.2,3L370.8,668.3z"/>
<circle class="st1" cx="389.3" cy="667.9" r="10.4"/>
<circle class="st18" cx="389.3" cy="667.9" r="5.5"/>
<circle class="st1" cx="440.8" cy="667.9" r="10.4"/>
<circle class="st18" cx="440.8" cy="667.9" r="5.5"/>
<polygon class="st17" points="394.8,639.4 420,639.4 423.1,639.4 428.3,639.4 428.3,639 428.3,634.4 428.3,629.3 424.9,629.3 
	421.8,629.3 416.3,629.3 413.2,629.3 407,629.3 "/>
<polygon class="st17" points="432.4,639.4 445.7,639.4 445.7,636.8 445.7,632.2 445.7,629.3 443.8,629.3 440.7,629.3 432.4,629.3 
	"/>
<rect x="426.6" y="646.9" class="st1" width="1.7" height="3.2"/>
<rect x="398.4" y="642.3" class="st1" width="3.2" height="1.7"/>
<path class="st1" d="M400.5,643l-0.2,0c-2,0-3.6-1.6-3.6-3.6l0,0c0-2,1.6-3.6,3.6-3.6l0.2,0l0,0L400.5,643L400.5,643z"/>
<path class="st1" d="M371.5,657.1c3,0.3,5.8-1.9,6.1-4.9c0.3-2.3-1-4.5-3.1-5.6c-1.7,2.1-2.7,4.7-2.8,7.4L371.5,657.1z"/>
<polygon class="st0" points="421.8,629.3 428.3,639 428.3,634.4 424.9,629.3 "/>
<polygon class="st0" points="440.7,629.3 445.7,636.8 445.7,632.2 443.8,629.3 "/>
<polygon class="st0" points="413.2,629.3 420,639.4 423.1,639.4 416.3,629.3 "/>
<circle class="st2" cx="59.2" cy="558.8" r="27.7"/>
<path class="st19" d="M59.3,567.2l-13.9-13.9c-0.9-0.9-0.9-2.5,0-3.4c0.9-0.9,2.5-0.9,3.4,0L59,560.1l32.6-37.2
	c0.9-1,2.4-1.1,3.4-0.2c1,0.9,1.1,2.4,0.2,3.4L59.3,567.2z"/>
</svg>
