<svg width="892.6139" height="540.80203" xmlns="http://www.w3.org/2000/svg">
 <title>season_change</title>

 <g>
  <title>background</title>
  <rect fill="none" id="canvas_background" height="542.80203" width="894.6139" y="-1" x="-1"/>
 </g>
 <g>
  <title>Layer 1</title>
  <circle id="svg_1" fill="#066429" r="46" cy="71.32961" cx="73.89615"/>
  <ellipse id="svg_2" fill="#e6e6e6" ry="18" rx="444.00318" cy="522.80203" cx="444.00318"/>
  <circle id="svg_3" fill="#066429" r="113" cy="184.2194" cx="114"/>
  <polygon id="svg_4" fill="#3f3d56" points="123.892 524.581 100.747 524.581 111.298 167.201 123.892 524.581"/>
  <polygon id="svg_5" fill="#3f3d56" points="113.34 234.933 138.187 200.557 113 243.442 110.277 238.677 113.34 234.933"/>
  <polygon id="svg_6" fill="#3f3d56" points="110.617 269.65 85.771 235.274 110.958 278.159 113.681 273.394 110.617 269.65"/>
  <polygon id="svg_7" fill="#3f3d56" points="827.505 524.957 804.361 524.957 814.912 167.577 827.505 524.957"/>
  <polygon id="svg_8" fill="#3f3d56" points="816.954 235.309 841.801 200.933 816.614 243.818 813.891 239.053 816.954 235.309"/>
  <polygon id="svg_9" fill="#3f3d56" points="814.231 270.026 789.385 235.65 814.572 278.535 817.295 273.77 814.231 270.026"/>
  <circle id="svg_10" fill="#066429" r="210.50359" cy="314.39327" cx="460.05561"/>
  <circle id="svg_11" fill="#fff" r="193.07779" cy="314.39327" cx="459.05561"/>
  <circle id="svg_12" fill="#066429" r="25.79017" cy="315.0903" cx="458.35857"/>
  <rect id="svg_13" fill="#3f3d56" height="20.91095" width="11.15251" y="131.07392" x="452.78232"/>
  <rect id="svg_14" fill="#3f3d56" height="20.91095" width="11.15251" y="478.19572" x="452.78232"/>
  <rect id="svg_15" fill="#3f3d56" transform="rotate(90 779.4869384765626,-123.40042114257808) " height="20.91095" width="11.15251" y="360.83339" x="1212.40141"/>
  <rect id="svg_16" fill="#3f3d56" transform="rotate(90 1126.6087646484377,-470.52221679687494) " height="20.91095" width="11.15251" y="13.71159" x="1906.64503"/>
  <polygon id="svg_17" fill="#066429" points="450.924 326.286 460.455 304.493 579.88 370.635 450.924 326.286"/>
  <rect id="svg_18" fill="#3f3d56" height="62.73286" width="54.36848" y="53.00636" x="431.87137"/>
  <ellipse id="svg_19" fill="#3f3d56" ry="17.42579" rx="62.73286" cy="53.00636" cx="459.05561"/>
  <path id="svg_20" fill="#ffb8b8" d="m576.50545,351.68447l-3.48516,4.87922s-16.03173,18.81986 -16.72876,9.75845s11.84954,-15.3347 11.84954,-15.3347l6.97032,-4.18219l1.39406,4.87922z"/>
  <path id="svg_21" fill="#ffb8b8" d="m675.72473,368.14624l2.91833,5.238s10.14843,22.54357 1.66044,19.29564s-8.78836,-17.27221 -8.78836,-17.27221l-0.79685,-8.08957l5.00644,0.82814z"/>
  <circle id="svg_22" fill="#2f2e41" r="21.22425" cy="254.04245" cx="660.03348"/>
  <path id="svg_23" fill="#ffb8b8" d="m658.05817,428.35796l2.78812,18.12283l0,5.57623l16.03173,0l0,-6.9703s0.697,-12.54657 -2.09109,-16.03173s-16.72876,-0.69703 -16.72876,-0.69703z"/>
  <path id="svg_24" fill="#ffb8b8" d="m629.47986,428.35796l2.78813,18.12283l0,5.57623l16.03173,0l0,-6.9703s0.697,-12.54657 -2.09109,-16.03173s-16.72877,-0.69703 -16.72877,-0.69703z"/>
  <path id="svg_25" fill="#066429" d="m640.26824,282.78473s-6.16626,3.25 -1.9546,10.64285s28.92249,83.8766 28.92249,83.8766l14.25582,-4.04685l-12.57235,-48.37053l-7.1988,-30.40158l-21.45256,-11.70049z"/>
  <circle id="svg_26" fill="#ffb8b8" r="16.03173" cy="260.02479" cx="657.70965"/>
  <path id="svg_27" fill="#ffb8b8" d="m665.02848,262.46441l-2.09109,32.76049l-14.63767,-10.45548s4.87922,-19.51689 3.48516,-20.911l13.2436,-1.39401z"/>
  <path id="svg_28" fill="#066429" d="m665.02848,291.43677l-15.769,-11.67706s-7.23305,-2.9606 -9.32415,0.52455s-12.54657,55.06551 -6.97032,64.824c0,0 29.97237,6.27328 36.24565,2.78812l2.78813,-18.12282s3.48516,-11.15251 -2.0911,-18.12283l-4.87921,-20.21396z"/>
  <path id="svg_29" fill="#066429" d="m645.11753,281.9813s-5.57625,-4.18219 -10.45548,2.78812s-63.42988,62.03583 -63.42988,62.03583l9.75844,11.15251l38.33675,-32.06346l24.39611,-19.51689l1.39406,-24.39611z"/>
  <path id="svg_30" fill="#2f2e41" d="m669.55919,348.54783s-34.50307,-6.6218 -37.98823,-1.74258l-0.697,7.66735s-7.66735,14.63766 -3.48516,38.33674s1.39406,38.33675 1.39406,38.33675s18.81986,-2.0911 32.76049,0s16.03173,0 16.03173,0l-8.01589,-82.59826z"/>
  <path id="svg_31" fill="#2f2e41" d="m678.27209,449.26891l-20.21392,0.697l6.97031,52.27739s-5.57625,22.305 0.697,23.69907a70.7125,70.7125 0 0 0 13.24361,1.39407s6.27328,6.27328 13.2436,5.57625a39.034,39.034 0 0 0 13.2436,-4.18219s1.39407,-4.18219 -3.48516,-5.57625s-18.12282,-5.57626 -20.911,-20.21392l-2.78804,-53.67142z"/>
  <path id="svg_32" fill="#2f2e41" d="m649.69378,449.26891l-20.21392,0.697l6.97032,52.27739s-5.57625,22.305 0.697,23.69907a70.7125,70.7125 0 0 0 13.24361,1.39407s6.27328,6.27328 13.2436,5.57625a39.034,39.034 0 0 0 13.2436,-4.18219s1.39407,-4.18219 -3.48516,-5.57625s-18.12279,-5.57623 -20.91088,-20.21389l-2.78817,-53.67145z"/>
  <circle id="svg_33" fill="#2f2e41" r="8.78245" cy="231.7041" cx="667.45803"/>
  <path id="svg_34" fill="#2f2e41" d="m679.16795,226.94695a8.78336,8.78336 0 0 0 -7.86761,-8.735a8.881,8.881 0 0 1 0.91484,-0.04748a8.78244,8.78244 0 0 1 0,17.56489a8.881,8.881 0 0 1 -0.91484,-0.04748a8.78336,8.78336 0 0 0 7.86761,-8.73493z"/>
  <ellipse id="svg_35" fill="#2f2e41" ry="8.78245" rx="14.63741" cy="249.54235" cx="657.56451"/>
  <path id="svg_36" fill="#e6e6e6" d="m888.11972,42.15123a44.67678,44.67678 0 0 0 -87.65662,-9.41942c-0.54125,-0.01942 -1.082,-0.04117 -1.628,-0.04117a44.68754,44.68754 0 0 0 -42.86662,32.08892a31.5744,31.5744 0 0 0 -37.46546,9.31921l139.36225,0a30.21954,30.21954 0 0 0 30.28607,-31.28863q-0.01339,-0.32895 -0.03162,-0.65891z"/>
  <circle id="svg_37" fill="#e6e6e6" r="12" cy="124.178" cx="771.6139"/>
  <circle id="svg_38" fill="#e6e6e6" r="9.9918" cy="95.88566" cx="807.84695"/>
  <circle id="svg_39" fill="#e6e6e6" r="12" cy="150.178" cx="856.6139"/>
  <circle id="svg_40" fill="#e6e6e6" r="12" cy="205.178" cx="765.6139"/>
  <circle id="svg_41" fill="#e6e6e6" r="12" cy="274.178" cx="856.6139"/>
  <path id="svg_42" fill="#e6e6e6" d="m837.59431,505.56631c0.00415,-0.13007 0.01959,-0.2572 0.01959,-0.38831a11.98223,11.98223 0 0 0 -16.98706,-10.90472a11.96811,11.96811 0 0 0 -20.8316,9.91388c-0.061,-0.00092 -0.12012,-0.00916 -0.18134,-0.00916a12,12 0 1 0 7.33429,21.48322a11.99355,11.99355 0 0 0 20.62177,1.21716a11.99014,11.99014 0 1 0 10.02435,-21.31207z"/>
  <circle id="svg_43" fill="#e6e6e6" r="5" cy="226.178" cx="867.6139"/>
  <circle id="svg_44" fill="#e6e6e6" r="5" cy="106.178" cx="835.6139"/>
  <circle id="svg_45" fill="#e6e6e6" r="5" cy="230.178" cx="818.6139"/>
  <circle id="svg_46" fill="#e6e6e6" r="5" cy="225.178" cx="822.6139"/>
  <circle id="svg_47" fill="#e6e6e6" r="5" cy="220.178" cx="825.6139"/>
  <circle id="svg_48" fill="#e6e6e6" r="5" cy="262.178" cx="813.6139"/>
  <circle id="svg_49" fill="#e6e6e6" r="5" cy="318.178" cx="887.6139"/>
  <circle id="svg_50" fill="#e6e6e6" r="5" cy="321.178" cx="780.6139"/>
  <circle id="svg_51" fill="#e6e6e6" r="5" cy="167.178" cx="786.6139"/>
  <circle id="svg_52" fill="#e6e6e6" r="5" cy="257.178" cx="809.6139"/>
  <circle id="svg_53" fill="#e6e6e6" r="5" cy="249.178" cx="804.6139"/>
  <path id="svg_54" d="m460.80695,46.85414l-6.80695,32.14586" opacity="0.5" stroke-opacity="null" stroke-width="null" stroke="null" fill="#066429"/>
  <path id="svg_55" d="m59.80695,125.85414" opacity="0.5" stroke-opacity="null" stroke-width="null" stroke="null" fill="#066429"/>
 </g>
</svg>